<svg xmlns="http://www.w3.org/2000/svg" xmlns:xlink="http://www.w3.org/1999/xlink" width="100" zoomAndPan="magnify" viewBox="0 0 75 74.999997" height="100" preserveAspectRatio="xMidYMid meet" version="1.0"><path fill="#000000" d="M 37.5 75 C 16.824219 75 0 58.175781 0 37.5 C 0 16.824219 16.824219 0 37.5 0 C 58.179688 0 75 16.824219 75 37.5 C 75 58.175781 58.175781 75 37.5 75 Z M 37.5 4.011719 C 19.035156 4.011719 4.011719 19.035156 4.011719 37.5 C 4.011719 55.964844 19.035156 70.988281 37.5 70.988281 C 55.964844 70.988281 70.988281 55.964844 70.988281 37.5 C 70.988281 19.035156 55.964844 4.011719 37.5 4.011719 Z M 37.5 4.011719 " fill-opacity="1" fill-rule="nonzero"/><path fill="#000000" d="M 56.136719 22.535156 C 56.148438 22.503906 56.152344 22.472656 56.160156 22.4375 C 56.171875 22.40625 56.179688 22.375 56.183594 22.34375 C 56.191406 22.3125 56.195312 22.285156 56.199219 22.253906 C 56.203125 22.21875 56.210938 22.183594 56.214844 22.148438 C 56.214844 22.117188 56.21875 22.089844 56.21875 22.058594 C 56.21875 22.023438 56.222656 21.988281 56.222656 21.957031 C 56.222656 21.921875 56.21875 21.886719 56.21875 21.855469 C 56.21875 21.824219 56.214844 21.792969 56.214844 21.761719 C 56.210938 21.726562 56.203125 21.691406 56.199219 21.65625 C 56.195312 21.628906 56.191406 21.597656 56.183594 21.570312 C 56.179688 21.535156 56.171875 21.503906 56.160156 21.472656 C 56.152344 21.441406 56.148438 21.410156 56.136719 21.378906 C 56.128906 21.347656 56.117188 21.320312 56.109375 21.292969 C 56.09375 21.257812 56.082031 21.222656 56.070312 21.1875 C 56.066406 21.179688 56.0625 21.171875 56.0625 21.164062 C 56.050781 21.144531 56.042969 21.128906 56.03125 21.109375 C 56.015625 21.074219 56 21.042969 55.984375 21.007812 C 55.96875 20.980469 55.953125 20.953125 55.9375 20.925781 C 55.917969 20.898438 55.902344 20.871094 55.882812 20.839844 C 55.863281 20.8125 55.847656 20.785156 55.824219 20.757812 C 55.808594 20.734375 55.789062 20.710938 55.769531 20.683594 C 55.746094 20.660156 55.722656 20.632812 55.703125 20.609375 C 55.679688 20.585938 55.660156 20.5625 55.636719 20.539062 C 55.613281 20.515625 55.589844 20.492188 55.5625 20.46875 C 55.539062 20.449219 55.515625 20.429688 55.492188 20.40625 C 55.464844 20.386719 55.4375 20.367188 55.410156 20.347656 C 55.386719 20.328125 55.359375 20.308594 55.332031 20.289062 C 55.304688 20.269531 55.273438 20.253906 55.246094 20.234375 C 55.21875 20.21875 55.191406 20.203125 55.167969 20.191406 C 55.132812 20.171875 55.097656 20.15625 55.0625 20.140625 C 55.046875 20.132812 55.027344 20.121094 55.007812 20.113281 C 55 20.109375 54.992188 20.109375 54.988281 20.105469 C 54.953125 20.089844 54.914062 20.078125 54.878906 20.066406 C 54.851562 20.054688 54.824219 20.042969 54.796875 20.035156 C 54.765625 20.027344 54.730469 20.019531 54.699219 20.011719 C 54.667969 20.003906 54.636719 19.996094 54.605469 19.988281 C 54.574219 19.980469 54.542969 19.980469 54.511719 19.972656 C 54.480469 19.96875 54.445312 19.960938 54.410156 19.960938 C 54.378906 19.957031 54.351562 19.957031 54.320312 19.953125 C 54.285156 19.953125 54.25 19.949219 54.21875 19.949219 C 54.183594 19.949219 54.152344 19.953125 54.117188 19.953125 C 54.085938 19.957031 54.054688 19.957031 54.023438 19.960938 C 53.992188 19.964844 53.957031 19.96875 53.921875 19.972656 C 53.894531 19.976562 53.863281 19.980469 53.832031 19.988281 C 53.800781 19.996094 53.769531 20.003906 53.738281 20.011719 C 53.707031 20.019531 53.671875 20.027344 53.636719 20.035156 C 53.613281 20.042969 53.585938 20.054688 53.558594 20.0625 C 53.523438 20.078125 53.484375 20.089844 53.449219 20.105469 C 53.441406 20.109375 53.433594 20.109375 53.425781 20.113281 L 15.921875 36.207031 C 15.183594 36.523438 14.707031 37.246094 14.707031 38.046875 C 14.707031 38.847656 15.183594 39.574219 15.917969 39.890625 L 30.144531 46.027344 L 36.28125 60.253906 C 36.597656 60.992188 37.324219 61.464844 38.125 61.464844 C 38.925781 61.464844 39.652344 60.988281 39.964844 60.253906 L 56.0625 22.746094 C 56.066406 22.738281 56.066406 22.730469 56.070312 22.722656 C 56.082031 22.6875 56.097656 22.652344 56.109375 22.621094 C 56.117188 22.589844 56.128906 22.5625 56.136719 22.535156 Z M 38.117188 54.386719 L 33.511719 43.707031 C 33.503906 43.6875 33.496094 43.671875 33.484375 43.652344 C 33.46875 43.621094 33.457031 43.585938 33.4375 43.554688 C 33.421875 43.527344 33.40625 43.5 33.390625 43.472656 C 33.375 43.445312 33.355469 43.414062 33.335938 43.386719 C 33.320312 43.359375 33.300781 43.332031 33.28125 43.308594 C 33.261719 43.28125 33.242188 43.253906 33.222656 43.230469 C 33.199219 43.203125 33.179688 43.179688 33.15625 43.15625 C 33.132812 43.132812 33.113281 43.109375 33.089844 43.085938 C 33.066406 43.0625 33.042969 43.039062 33.019531 43.019531 C 32.992188 42.996094 32.96875 42.972656 32.945312 42.953125 C 32.917969 42.933594 32.894531 42.914062 32.867188 42.894531 C 32.839844 42.875 32.8125 42.855469 32.785156 42.835938 C 32.757812 42.816406 32.730469 42.800781 32.699219 42.78125 C 32.675781 42.765625 32.648438 42.75 32.621094 42.734375 C 32.585938 42.71875 32.554688 42.703125 32.519531 42.6875 C 32.503906 42.679688 32.484375 42.667969 32.464844 42.660156 L 21.785156 38.054688 L 50.394531 25.777344 Z M 38.117188 54.386719 " fill-opacity="1" fill-rule="nonzero"/><path fill="#000000" d="M 37.5 75 C 16.824219 75 0 58.175781 0 37.5 C 0 16.824219 16.824219 0 37.5 0 C 58.179688 0 75 16.824219 75 37.5 C 75 58.175781 58.175781 75 37.5 75 Z M 37.5 4.011719 C 19.035156 4.011719 4.011719 19.035156 4.011719 37.5 C 4.011719 55.964844 19.035156 70.988281 37.5 70.988281 C 55.964844 70.988281 70.988281 55.964844 70.988281 37.5 C 70.988281 19.035156 55.964844 4.011719 37.5 4.011719 Z M 37.5 4.011719 " fill-opacity="1" fill-rule="nonzero"/><path fill="#000000" d="M 56.136719 22.535156 C 56.148438 22.503906 56.152344 22.472656 56.160156 22.4375 C 56.171875 22.40625 56.179688 22.375 56.183594 22.34375 C 56.191406 22.3125 56.195312 22.285156 56.199219 22.253906 C 56.203125 22.21875 56.210938 22.183594 56.214844 22.148438 C 56.214844 22.117188 56.21875 22.089844 56.21875 22.058594 C 56.21875 22.023438 56.222656 21.988281 56.222656 21.957031 C 56.222656 21.921875 56.21875 21.886719 56.21875 21.855469 C 56.21875 21.824219 56.214844 21.792969 56.214844 21.761719 C 56.210938 21.726562 56.203125 21.691406 56.199219 21.65625 C 56.195312 21.628906 56.191406 21.597656 56.183594 21.570312 C 56.179688 21.535156 56.171875 21.503906 56.160156 21.472656 C 56.152344 21.441406 56.148438 21.410156 56.136719 21.378906 C 56.128906 21.347656 56.117188 21.320312 56.109375 21.292969 C 56.09375 21.257812 56.082031 21.222656 56.070312 21.1875 C 56.066406 21.179688 56.0625 21.171875 56.0625 21.164062 C 56.050781 21.144531 56.042969 21.128906 56.03125 21.109375 C 56.015625 21.074219 56 21.042969 55.984375 21.007812 C 55.96875 20.980469 55.953125 20.953125 55.9375 20.925781 C 55.917969 20.898438 55.902344 20.871094 55.882812 20.839844 C 55.863281 20.8125 55.847656 20.785156 55.824219 20.757812 C 55.808594 20.734375 55.789062 20.710938 55.769531 20.683594 C 55.746094 20.660156 55.722656 20.632812 55.703125 20.609375 C 55.679688 20.585938 55.660156 20.5625 55.636719 20.539062 C 55.613281 20.515625 55.589844 20.492188 55.5625 20.46875 C 55.539062 20.449219 55.515625 20.429688 55.492188 20.40625 C 55.464844 20.386719 55.4375 20.367188 55.410156 20.347656 C 55.386719 20.328125 55.359375 20.308594 55.332031 20.289062 C 55.304688 20.269531 55.273438 20.253906 55.246094 20.234375 C 55.21875 20.21875 55.191406 20.203125 55.167969 20.191406 C 55.132812 20.171875 55.097656 20.15625 55.0625 20.140625 C 55.046875 20.132812 55.027344 20.121094 55.007812 20.113281 C 55 20.109375 54.992188 20.109375 54.988281 20.105469 C 54.953125 20.089844 54.914062 20.078125 54.878906 20.066406 C 54.851562 20.054688 54.824219 20.042969 54.796875 20.035156 C 54.765625 20.027344 54.730469 20.019531 54.699219 20.011719 C 54.667969 20.003906 54.636719 19.996094 54.605469 19.988281 C 54.574219 19.980469 54.542969 19.980469 54.511719 19.972656 C 54.480469 19.96875 54.445312 19.960938 54.410156 19.960938 C 54.378906 19.957031 54.351562 19.957031 54.320312 19.953125 C 54.285156 19.953125 54.25 19.949219 54.21875 19.949219 C 54.183594 19.949219 54.152344 19.953125 54.117188 19.953125 C 54.085938 19.957031 54.054688 19.957031 54.023438 19.960938 C 53.992188 19.964844 53.957031 19.96875 53.921875 19.972656 C 53.894531 19.976562 53.863281 19.980469 53.832031 19.988281 C 53.800781 19.996094 53.769531 20.003906 53.738281 20.011719 C 53.707031 20.019531 53.671875 20.027344 53.636719 20.035156 C 53.613281 20.042969 53.585938 20.054688 53.558594 20.0625 C 53.523438 20.078125 53.484375 20.089844 53.449219 20.105469 C 53.441406 20.109375 53.433594 20.109375 53.425781 20.113281 L 15.921875 36.207031 C 15.183594 36.523438 14.707031 37.246094 14.707031 38.046875 C 14.707031 38.847656 15.183594 39.574219 15.917969 39.890625 L 30.144531 46.027344 L 36.28125 60.253906 C 36.597656 60.992188 37.324219 61.464844 38.125 61.464844 C 38.925781 61.464844 39.652344 60.988281 39.964844 60.253906 L 56.0625 22.746094 C 56.066406 22.738281 56.066406 22.730469 56.070312 22.722656 C 56.082031 22.6875 56.097656 22.652344 56.109375 22.621094 C 56.117188 22.589844 56.128906 22.5625 56.136719 22.535156 Z M 38.117188 54.386719 L 33.511719 43.707031 C 33.503906 43.6875 33.496094 43.671875 33.484375 43.652344 C 33.46875 43.621094 33.457031 43.585938 33.4375 43.554688 C 33.421875 43.527344 33.40625 43.5 33.390625 43.472656 C 33.375 43.445312 33.355469 43.414062 33.335938 43.386719 C 33.320312 43.359375 33.300781 43.332031 33.28125 43.308594 C 33.261719 43.28125 33.242188 43.253906 33.222656 43.230469 C 33.199219 43.203125 33.179688 43.179688 33.15625 43.15625 C 33.132812 43.132812 33.113281 43.109375 33.089844 43.085938 C 33.066406 43.0625 33.042969 43.039062 33.019531 43.019531 C 32.992188 42.996094 32.96875 42.972656 32.945312 42.953125 C 32.917969 42.933594 32.894531 42.914062 32.867188 42.894531 C 32.839844 42.875 32.8125 42.855469 32.785156 42.835938 C 32.757812 42.816406 32.730469 42.800781 32.699219 42.78125 C 32.675781 42.765625 32.648438 42.75 32.621094 42.734375 C 32.585938 42.71875 32.554688 42.703125 32.519531 42.6875 C 32.503906 42.679688 32.484375 42.667969 32.464844 42.660156 L 21.785156 38.054688 L 50.394531 25.777344 Z M 38.117188 54.386719 " fill-opacity="1" fill-rule="nonzero"/></svg>