<svg xmlns="http://www.w3.org/2000/svg" xmlns:xlink="http://www.w3.org/1999/xlink" width="432" zoomAndPan="magnify" viewBox="0 0 324 323.999988" height="432" preserveAspectRatio="xMidYMid meet" version="1.0"><path fill="#231f20" d="M 165.960938 86.691406 C 166.207031 88.949219 166.546875 91.195312 166.984375 93.425781 C 167.421875 95.65625 167.953125 97.867188 168.574219 100.050781 C 169.199219 102.238281 169.914062 104.394531 170.71875 106.519531 C 171.527344 108.644531 172.421875 110.734375 173.402344 112.785156 C 174.386719 114.832031 175.453125 116.839844 176.605469 118.796875 C 177.757812 120.757812 178.992188 122.664062 180.308594 124.519531 C 181.621094 126.375 183.011719 128.171875 184.476562 129.910156 C 185.941406 131.648438 187.480469 133.320312 189.085938 134.929688 C 190.695312 136.535156 192.367188 138.074219 194.105469 139.539062 C 195.84375 141.003906 197.640625 142.394531 199.492188 143.707031 C 201.347656 145.023438 203.257812 146.253906 205.214844 147.410156 C 207.175781 148.5625 209.179688 149.628906 211.230469 150.613281 C 213.28125 151.59375 215.367188 152.488281 217.496094 153.296875 C 219.621094 154.101562 221.777344 154.816406 223.960938 155.441406 C 226.148438 156.0625 228.355469 156.59375 230.589844 157.03125 C 232.820312 157.46875 235.066406 157.808594 237.324219 158.054688 C 259.230469 160.457031 287.507812 162.007812 324.015625 162.007812 C 287.511719 162.007812 259.230469 163.558594 237.324219 165.960938 C 235.066406 166.207031 232.820312 166.546875 230.589844 166.984375 C 228.355469 167.421875 226.148438 167.953125 223.960938 168.574219 C 221.777344 169.199219 219.621094 169.914062 217.496094 170.71875 C 215.367188 171.527344 213.28125 172.421875 211.230469 173.402344 C 209.179688 174.386719 207.175781 175.453125 205.214844 176.605469 C 203.257812 177.757812 201.347656 178.992188 199.492188 180.304688 C 197.640625 181.621094 195.84375 183.011719 194.105469 184.476562 C 192.367188 185.941406 190.695312 187.480469 189.085938 189.085938 C 187.480469 190.695312 185.941406 192.367188 184.476562 194.105469 C 183.011719 195.84375 181.621094 197.636719 180.304688 199.492188 C 178.992188 201.347656 177.757812 203.257812 176.605469 205.214844 C 175.453125 207.175781 174.386719 209.179688 173.402344 211.230469 C 172.421875 213.28125 171.527344 215.367188 170.71875 217.496094 C 169.914062 219.621094 169.199219 221.777344 168.574219 223.960938 C 167.953125 226.148438 167.421875 228.355469 166.984375 230.589844 C 166.546875 232.820312 166.207031 235.066406 165.960938 237.324219 C 163.558594 259.230469 162.007812 287.507812 162.007812 324.015625 C 162.007812 287.511719 160.457031 259.230469 158.054688 237.324219 C 157.808594 235.066406 157.46875 232.820312 157.03125 230.589844 C 156.59375 228.355469 156.0625 226.148438 155.441406 223.960938 C 154.816406 221.777344 154.101562 219.621094 153.296875 217.496094 C 152.488281 215.367188 151.59375 213.28125 150.613281 211.230469 C 149.628906 209.179688 148.5625 207.175781 147.410156 205.214844 C 146.253906 203.257812 145.023438 201.347656 143.707031 199.492188 C 142.394531 197.640625 141.003906 195.84375 139.539062 194.105469 C 138.074219 192.367188 136.535156 190.695312 134.929688 189.085938 C 133.320312 187.480469 131.648438 185.941406 129.910156 184.476562 C 128.171875 183.011719 126.375 181.621094 124.519531 180.304688 C 122.664062 178.992188 120.757812 177.757812 118.796875 176.605469 C 116.839844 175.453125 114.832031 174.386719 112.785156 173.402344 C 110.734375 172.421875 108.644531 171.527344 106.519531 170.71875 C 104.394531 169.914062 102.238281 169.199219 100.050781 168.574219 C 97.867188 167.953125 95.65625 167.421875 93.425781 166.984375 C 91.195312 166.546875 88.949219 166.207031 86.691406 165.960938 C 64.78125 163.558594 36.503906 162.007812 0 162.007812 C 36.503906 162.007812 64.78125 160.457031 86.691406 158.054688 C 88.949219 157.808594 91.195312 157.46875 93.425781 157.03125 C 95.65625 156.59375 97.867188 156.0625 100.050781 155.441406 C 102.238281 154.816406 104.394531 154.101562 106.519531 153.296875 C 108.644531 152.488281 110.734375 151.59375 112.785156 150.613281 C 114.832031 149.628906 116.839844 148.5625 118.796875 147.40625 C 120.757812 146.253906 122.664062 145.023438 124.519531 143.707031 C 126.375 142.394531 128.171875 141.003906 129.910156 139.539062 C 131.648438 138.074219 133.320312 136.535156 134.929688 134.929688 C 136.535156 133.320312 138.074219 131.648438 139.539062 129.910156 C 141.003906 128.171875 142.394531 126.375 143.707031 124.519531 C 145.023438 122.664062 146.253906 120.757812 147.410156 118.796875 C 148.5625 116.839844 149.628906 114.832031 150.613281 112.785156 C 151.59375 110.734375 152.488281 108.644531 153.296875 106.519531 C 154.101562 104.394531 154.816406 102.238281 155.441406 100.050781 C 156.0625 97.867188 156.59375 95.65625 157.03125 93.425781 C 157.46875 91.195312 157.808594 88.949219 158.054688 86.691406 C 160.457031 64.78125 162.007812 36.507812 162.007812 0 C 162.007812 36.503906 163.558594 64.78125 165.960938 86.691406 Z M 165.960938 86.691406 " fill-opacity="1" fill-rule="nonzero"/><path fill="#ffffff" d="M 165.960938 86.691406 C 166.207031 88.949219 166.546875 91.195312 166.984375 93.425781 C 167.421875 95.65625 167.953125 97.867188 168.574219 100.050781 C 169.199219 102.238281 169.914062 104.394531 170.71875 106.519531 C 171.527344 108.644531 172.421875 110.734375 173.402344 112.785156 C 174.386719 114.832031 175.453125 116.839844 176.605469 118.796875 C 177.757812 120.757812 178.992188 122.664062 180.308594 124.519531 C 181.621094 126.375 183.011719 128.171875 184.476562 129.910156 C 185.941406 131.648438 187.480469 133.320312 189.085938 134.929688 C 190.695312 136.535156 192.367188 138.074219 194.105469 139.539062 C 195.84375 141.003906 197.640625 142.394531 199.492188 143.707031 C 201.347656 145.023438 203.257812 146.253906 205.214844 147.410156 C 207.175781 148.5625 209.179688 149.628906 211.230469 150.613281 C 213.28125 151.59375 215.367188 152.488281 217.496094 153.296875 C 219.621094 154.101562 221.777344 154.816406 223.960938 155.441406 C 226.148438 156.0625 228.355469 156.59375 230.589844 157.03125 C 232.820312 157.46875 235.066406 157.808594 237.324219 158.054688 C 259.230469 160.457031 287.507812 162.007812 324.015625 162.007812 C 287.511719 162.007812 259.230469 163.558594 237.324219 165.960938 C 235.066406 166.207031 232.820312 166.546875 230.589844 166.984375 C 228.355469 167.421875 226.148438 167.953125 223.960938 168.574219 C 221.777344 169.199219 219.621094 169.914062 217.496094 170.71875 C 215.367188 171.527344 213.28125 172.421875 211.230469 173.402344 C 209.179688 174.386719 207.175781 175.453125 205.214844 176.605469 C 203.257812 177.757812 201.347656 178.992188 199.492188 180.304688 C 197.640625 181.621094 195.84375 183.011719 194.105469 184.476562 C 192.367188 185.941406 190.695312 187.480469 189.085938 189.085938 C 187.480469 190.695312 185.941406 192.367188 184.476562 194.105469 C 183.011719 195.84375 181.621094 197.636719 180.304688 199.492188 C 178.992188 201.347656 177.757812 203.257812 176.605469 205.214844 C 175.453125 207.175781 174.386719 209.179688 173.402344 211.230469 C 172.421875 213.28125 171.527344 215.367188 170.71875 217.496094 C 169.914062 219.621094 169.199219 221.777344 168.574219 223.960938 C 167.953125 226.148438 167.421875 228.355469 166.984375 230.589844 C 166.546875 232.820312 166.207031 235.066406 165.960938 237.324219 C 163.558594 259.230469 162.007812 287.507812 162.007812 324.015625 C 162.007812 287.511719 160.457031 259.230469 158.054688 237.324219 C 157.808594 235.066406 157.46875 232.820312 157.03125 230.589844 C 156.59375 228.355469 156.0625 226.148438 155.441406 223.960938 C 154.816406 221.777344 154.101562 219.621094 153.296875 217.496094 C 152.488281 215.367188 151.59375 213.28125 150.613281 211.230469 C 149.628906 209.179688 148.5625 207.175781 147.410156 205.214844 C 146.253906 203.257812 145.023438 201.347656 143.707031 199.492188 C 142.394531 197.640625 141.003906 195.84375 139.539062 194.105469 C 138.074219 192.367188 136.535156 190.695312 134.929688 189.085938 C 133.320312 187.480469 131.648438 185.941406 129.910156 184.476562 C 128.171875 183.011719 126.375 181.621094 124.519531 180.304688 C 122.664062 178.992188 120.757812 177.757812 118.796875 176.605469 C 116.839844 175.453125 114.832031 174.386719 112.785156 173.402344 C 110.734375 172.421875 108.644531 171.527344 106.519531 170.71875 C 104.394531 169.914062 102.238281 169.199219 100.050781 168.574219 C 97.867188 167.953125 95.65625 167.421875 93.425781 166.984375 C 91.195312 166.546875 88.949219 166.207031 86.691406 165.960938 C 64.78125 163.558594 36.503906 162.007812 0 162.007812 C 36.503906 162.007812 64.78125 160.457031 86.691406 158.054688 C 88.949219 157.808594 91.195312 157.46875 93.425781 157.03125 C 95.65625 156.59375 97.867188 156.0625 100.050781 155.441406 C 102.238281 154.816406 104.394531 154.101562 106.519531 153.296875 C 108.644531 152.488281 110.734375 151.59375 112.785156 150.613281 C 114.832031 149.628906 116.839844 148.5625 118.796875 147.40625 C 120.757812 146.253906 122.664062 145.023438 124.519531 143.707031 C 126.375 142.394531 128.171875 141.003906 129.910156 139.539062 C 131.648438 138.074219 133.320312 136.535156 134.929688 134.929688 C 136.535156 133.320312 138.074219 131.648438 139.539062 129.910156 C 141.003906 128.171875 142.394531 126.375 143.707031 124.519531 C 145.023438 122.664062 146.253906 120.757812 147.410156 118.796875 C 148.5625 116.839844 149.628906 114.832031 150.613281 112.785156 C 151.59375 110.734375 152.488281 108.644531 153.296875 106.519531 C 154.101562 104.394531 154.816406 102.238281 155.441406 100.050781 C 156.0625 97.867188 156.59375 95.65625 157.03125 93.425781 C 157.46875 91.195312 157.808594 88.949219 158.054688 86.691406 C 160.457031 64.78125 162.007812 36.507812 162.007812 0 C 162.007812 36.503906 163.558594 64.78125 165.960938 86.691406 Z M 165.960938 86.691406 " fill-opacity="1" fill-rule="nonzero"/></svg>